<mxfile host="app.diagrams.net" modified="2024-03-29T09:04:24.692Z" agent="Mozilla/5.0 (Windows NT 10.0; Win64; x64) AppleWebKit/537.36 (KHTML, like Gecko) Chrome/122.0.0.0 Safari/537.36 Edg/122.0.0.0" etag="B_UCYqLz7tD9Z-sPNTNC" version="24.2.0" type="github">
  <diagram name="第 1 页" id="p_iAi44Ry-NSHgKV5wpp">
    <mxGraphModel dx="1002" dy="569" grid="1" gridSize="10" guides="1" tooltips="1" connect="1" arrows="1" fold="1" page="1" pageScale="1" pageWidth="827" pageHeight="1169" math="0" shadow="0">
      <root>
        <mxCell id="0" />
        <mxCell id="1" parent="0" />
        <mxCell id="bFsspwIS_Gko53YMK19D-11" value="&lt;font style=&quot;font-size: 20px;&quot;&gt;&lt;span style=&quot;font-size: 20px;&quot;&gt;Data&amp;nbsp;&lt;/span&gt;&lt;/font&gt;&lt;div style=&quot;font-size: 20px;&quot;&gt;&lt;font style=&quot;font-size: 20px;&quot;&gt;&lt;span style=&quot;font-size: 20px;&quot;&gt;&lt;br style=&quot;font-size: 20px;&quot;&gt;&lt;/span&gt;&lt;/font&gt;&lt;/div&gt;&lt;div style=&quot;font-size: 20px;&quot;&gt;&lt;font style=&quot;font-size: 20px;&quot;&gt;&lt;span style=&quot;font-size: 20px;&quot;&gt;Preprocess&lt;/span&gt;&lt;/font&gt;&lt;/div&gt;" style="rounded=0;whiteSpace=wrap;html=1;strokeColor=none;fontFamily=Tahoma;fontSize=20;fontStyle=1" vertex="1" parent="1">
          <mxGeometry x="280" y="330" width="120" height="10" as="geometry" />
        </mxCell>
        <mxCell id="bFsspwIS_Gko53YMK19D-1" value="&lt;b style=&quot;font-size: 25px;&quot;&gt;&lt;font style=&quot;font-size: 25px; font-style: normal;&quot;&gt;Task Data&lt;/font&gt;&lt;/b&gt;" style="shape=note;size=0;whiteSpace=wrap;html=1;align=center;verticalAlign=top;fontSize=25;fontFamily=Georgia;shadow=1;fontStyle=2;strokeColor=#000000;strokeWidth=1;" vertex="1" parent="1">
          <mxGeometry x="70" y="200" width="200" height="270" as="geometry" />
        </mxCell>
        <mxCell id="bFsspwIS_Gko53YMK19D-2" value="&lt;div style=&quot;text-align: center; font-size: 14px;&quot;&gt;&lt;span style=&quot;background-color: initial;&quot;&gt;&lt;b&gt;&lt;font style=&quot;font-size: 14px;&quot;&gt;Query&lt;/font&gt;:&amp;nbsp;&lt;/b&gt;&lt;/span&gt;&lt;/div&gt;&lt;div style=&quot;font-size: 11px; line-height: 130%;&quot;&gt;&lt;font style=&quot;font-size: 11px;&quot;&gt;Dakar Youth Olympic Games delayed until 2026&lt;/font&gt;&lt;/div&gt;&lt;div style=&quot;font-size: 11px; line-height: 130%;&quot;&gt;&lt;font style=&quot;font-size: 11px;&quot;&gt;The Youth Olympic Games were scheduled to take place in Dakar next year, but they have been moved to 2026 ......&lt;/font&gt;&lt;/div&gt;" style="whiteSpace=wrap;html=1;align=left;fontFamily=Comic Sans MS;textShadow=0;strokeColor=default;strokeWidth=1;verticalAlign=middle;" vertex="1" parent="1">
          <mxGeometry x="70" y="245" width="200" height="115" as="geometry" />
        </mxCell>
        <mxCell id="bFsspwIS_Gko53YMK19D-3" value="&lt;div style=&quot;text-align: center;&quot;&gt;&lt;b style=&quot;font-size: 14px; font-family: &amp;quot;Comic Sans MS&amp;quot;; background-color: initial;&quot;&gt;Response:&amp;nbsp;&lt;/b&gt;&lt;/div&gt;&lt;div style=&quot;line-height: 130%;&quot;&gt;&lt;font face=&quot;Comic Sans MS&quot;&gt;&lt;span style=&quot;font-size: 11px;&quot;&gt;Ólympíuleikum æskunnar í Dakar frestað til 2026&lt;/span&gt;&lt;/font&gt;&lt;/div&gt;&lt;div style=&quot;line-height: 130%;&quot;&gt;&lt;font face=&quot;Comic Sans MS&quot;&gt;&lt;span style=&quot;font-size: 11px;&quot;&gt;Ólympíuleikar æskunnar áttu að fara fram í Dakar á næsta ári en þeim hefur nú verið frestað til 2026 ......&lt;/span&gt;&lt;/font&gt;&lt;br&gt;&lt;/div&gt;" style="whiteSpace=wrap;html=1;align=left;textShadow=0;" vertex="1" parent="1">
          <mxGeometry x="70" y="360" width="200" height="110" as="geometry" />
        </mxCell>
        <mxCell id="bFsspwIS_Gko53YMK19D-4" value="" style="shape=link;html=1;rounded=0;entryX=1;entryY=1;entryDx=0;entryDy=0;strokeColor=default;labelBackgroundColor=#000000;" edge="1" parent="1">
          <mxGeometry width="100" relative="1" as="geometry">
            <mxPoint x="70" y="245" as="sourcePoint" />
            <mxPoint x="270" y="246" as="targetPoint" />
          </mxGeometry>
        </mxCell>
        <mxCell id="bFsspwIS_Gko53YMK19D-5" value="" style="shape=link;html=1;rounded=0;entryX=1;entryY=1;entryDx=0;entryDy=0;strokeColor=default;labelBackgroundColor=#000000;" edge="1" parent="1">
          <mxGeometry width="100" relative="1" as="geometry">
            <mxPoint x="70" y="360" as="sourcePoint" />
            <mxPoint x="270" y="361" as="targetPoint" />
          </mxGeometry>
        </mxCell>
        <mxCell id="bFsspwIS_Gko53YMK19D-8" value="&lt;b style=&quot;font-size: 25px;&quot;&gt;&lt;font style=&quot;font-size: 25px; font-style: normal;&quot;&gt;Task Data&lt;/font&gt;&lt;/b&gt;" style="shape=note;size=0;whiteSpace=wrap;html=1;align=center;verticalAlign=top;fontSize=25;fontFamily=Georgia;shadow=1;fontStyle=2;strokeColor=#000000;strokeWidth=1;" vertex="1" parent="1">
          <mxGeometry x="420" y="200" width="200" height="270" as="geometry" />
        </mxCell>
        <mxCell id="bFsspwIS_Gko53YMK19D-9" value="&lt;div style=&quot;text-align: center; font-size: 11px;&quot;&gt;&lt;span style=&quot;background-color: initial; font-size: 11px;&quot;&gt;&lt;b style=&quot;font-size: 14px;&quot;&gt;&lt;font style=&quot;font-size: 14px;&quot;&gt;&lt;font style=&quot;font-size: 14px;&quot;&gt;Query&lt;/font&gt;:&amp;nbsp;&lt;/font&gt;&lt;/b&gt;&lt;/span&gt;&lt;/div&gt;&lt;div style=&quot;font-size: 11px; line-height: 130%;&quot;&gt;&lt;font color=&quot;#000099&quot; style=&quot;font-size: 11px;&quot;&gt;&lt;span style=&quot;font-size: 11px;&quot;&gt;&lt;u&gt;This text is in English and needs to be translated into Icelandic. Please translate only the text, strictly maintaining the original content order without making any other changes.&lt;/u&gt;&lt;/span&gt;&lt;/font&gt;&lt;/div&gt;&lt;div style=&quot;font-size: 11px;&quot;&gt;&lt;font style=&quot;font-size: 11px;&quot;&gt;Dakar Youth Olympic Games ......&lt;/font&gt;&lt;br style=&quot;font-size: 11px;&quot;&gt;&lt;/div&gt;" style="whiteSpace=wrap;html=1;align=left;fontFamily=Comic Sans MS;textShadow=0;strokeColor=default;strokeWidth=1;verticalAlign=middle;fontSize=11;" vertex="1" parent="1">
          <mxGeometry x="420" y="245" width="200" height="115" as="geometry" />
        </mxCell>
        <mxCell id="bFsspwIS_Gko53YMK19D-10" value="&lt;div style=&quot;text-align: center;&quot;&gt;&lt;b style=&quot;font-size: 14px; font-family: &amp;quot;Comic Sans MS&amp;quot;; background-color: initial;&quot;&gt;Response:&amp;nbsp;&lt;/b&gt;&lt;/div&gt;&lt;div style=&quot;font-size: 11px; line-height: 130%;&quot;&gt;&lt;font color=&quot;#000099&quot; style=&quot;font-size: 11px;&quot; face=&quot;Comic Sans MS&quot;&gt;&lt;u style=&quot;&quot;&gt;Sure, here is the Icelandic translation:&amp;nbsp;&lt;/u&gt;&lt;/font&gt;&lt;div style=&quot;line-height: 130%;&quot;&gt;&lt;font style=&quot;font-size: 11px;&quot; face=&quot;Comic Sans MS&quot;&gt;Ólympíuleikum æskunnar í Dakar frestað til 2026&lt;/font&gt;&lt;/div&gt;&lt;div style=&quot;line-height: 130%;&quot;&gt;&lt;font style=&quot;font-size: 11px;&quot; face=&quot;Comic Sans MS&quot;&gt;Ólympíuleikar æskunnar áttu að ......&lt;/font&gt;&lt;br&gt;&lt;/div&gt;&lt;/div&gt;" style="whiteSpace=wrap;html=1;align=left;textShadow=0;" vertex="1" parent="1">
          <mxGeometry x="420" y="360" width="200" height="110" as="geometry" />
        </mxCell>
        <mxCell id="bFsspwIS_Gko53YMK19D-13" value="&lt;b&gt;Fine&lt;/b&gt;&lt;div&gt;&lt;b&gt;&lt;br&gt;&lt;/b&gt;&lt;/div&gt;&lt;div&gt;&lt;b&gt;Tuning&lt;/b&gt;&lt;/div&gt;" style="rounded=0;whiteSpace=wrap;html=1;strokeColor=none;fontFamily=Verdana;fontSize=20;" vertex="1" parent="1">
          <mxGeometry x="627" y="330" width="120" height="10" as="geometry" />
        </mxCell>
        <mxCell id="bFsspwIS_Gko53YMK19D-15" style="edgeStyle=orthogonalEdgeStyle;rounded=0;orthogonalLoop=1;jettySize=auto;html=1;shape=flexArrow;" edge="1" parent="1">
          <mxGeometry relative="1" as="geometry">
            <mxPoint x="770" y="334.58" as="targetPoint" />
            <mxPoint x="620" y="334.58" as="sourcePoint" />
          </mxGeometry>
        </mxCell>
        <mxCell id="bFsspwIS_Gko53YMK19D-17" style="edgeStyle=orthogonalEdgeStyle;rounded=0;orthogonalLoop=1;jettySize=auto;html=1;shape=flexArrow;" edge="1" parent="1">
          <mxGeometry relative="1" as="geometry">
            <mxPoint x="420" y="334.58" as="targetPoint" />
            <mxPoint x="270" y="334.58" as="sourcePoint" />
          </mxGeometry>
        </mxCell>
        <mxCell id="bFsspwIS_Gko53YMK19D-18" value="&lt;b style=&quot;font-size: 14px;&quot;&gt;&lt;font style=&quot;font-style: normal; font-size: 14px;&quot;&gt;General&lt;/font&gt;&lt;/b&gt;&lt;div style=&quot;font-size: 14px;&quot;&gt;&lt;span style=&quot;font-style: normal; font-size: 14px;&quot;&gt;&lt;b style=&quot;font-size: 14px;&quot;&gt;&lt;font style=&quot;font-size: 14px;&quot;&gt;Data&lt;/font&gt;&lt;/b&gt;&lt;/span&gt;&lt;/div&gt;" style="shape=note;size=0;whiteSpace=wrap;html=1;align=center;verticalAlign=top;fontSize=14;fontFamily=Georgia;shadow=1;fontStyle=2;strokeColor=#000000;strokeWidth=1;" vertex="1" parent="1">
          <mxGeometry x="772" y="200" width="64" height="85" as="geometry" />
        </mxCell>
        <mxCell id="bFsspwIS_Gko53YMK19D-25" value="&lt;b style=&quot;font-size: 14px;&quot;&gt;&lt;font style=&quot;font-size: 14px; font-style: normal;&quot;&gt;Task Data&lt;/font&gt;&lt;/b&gt;" style="shape=note;size=0;whiteSpace=wrap;html=1;align=center;verticalAlign=top;fontSize=14;fontFamily=Georgia;shadow=1;fontStyle=2;strokeColor=#000000;strokeWidth=1;" vertex="1" parent="1">
          <mxGeometry x="842" y="295" width="64" height="85" as="geometry" />
        </mxCell>
        <mxCell id="bFsspwIS_Gko53YMK19D-29" value="&lt;b style=&quot;font-size: 14px;&quot;&gt;&lt;font style=&quot;font-style: normal; font-size: 14px;&quot;&gt;General&lt;/font&gt;&lt;/b&gt;&lt;div style=&quot;font-size: 14px;&quot;&gt;&lt;span style=&quot;font-style: normal; font-size: 14px;&quot;&gt;&lt;b style=&quot;font-size: 14px;&quot;&gt;&lt;font style=&quot;font-size: 14px;&quot;&gt;Data&lt;/font&gt;&lt;/b&gt;&lt;/span&gt;&lt;/div&gt;" style="shape=note;size=0;whiteSpace=wrap;html=1;align=center;verticalAlign=top;fontSize=14;fontFamily=Georgia;shadow=1;fontStyle=2;strokeColor=#000000;strokeWidth=1;" vertex="1" parent="1">
          <mxGeometry x="842" y="200" width="64" height="85" as="geometry" />
        </mxCell>
        <mxCell id="bFsspwIS_Gko53YMK19D-30" value="&lt;b style=&quot;font-size: 14px;&quot;&gt;&lt;font style=&quot;font-style: normal; font-size: 14px;&quot;&gt;General&lt;/font&gt;&lt;/b&gt;&lt;div style=&quot;font-size: 14px;&quot;&gt;&lt;span style=&quot;font-style: normal; font-size: 14px;&quot;&gt;&lt;b style=&quot;font-size: 14px;&quot;&gt;&lt;font style=&quot;font-size: 14px;&quot;&gt;Data&lt;/font&gt;&lt;/b&gt;&lt;/span&gt;&lt;/div&gt;" style="shape=note;size=0;whiteSpace=wrap;html=1;align=center;verticalAlign=top;fontSize=14;fontFamily=Georgia;shadow=1;fontStyle=2;strokeColor=#000000;strokeWidth=1;" vertex="1" parent="1">
          <mxGeometry x="912" y="200" width="64" height="85" as="geometry" />
        </mxCell>
        <mxCell id="bFsspwIS_Gko53YMK19D-31" value="&lt;b style=&quot;font-size: 14px;&quot;&gt;&lt;font style=&quot;font-style: normal; font-size: 14px;&quot;&gt;General&lt;/font&gt;&lt;/b&gt;&lt;div style=&quot;font-size: 14px;&quot;&gt;&lt;span style=&quot;font-style: normal; font-size: 14px;&quot;&gt;&lt;b style=&quot;font-size: 14px;&quot;&gt;&lt;font style=&quot;font-size: 14px;&quot;&gt;Data&lt;/font&gt;&lt;/b&gt;&lt;/span&gt;&lt;/div&gt;" style="shape=note;size=0;whiteSpace=wrap;html=1;align=center;verticalAlign=top;fontSize=14;fontFamily=Georgia;shadow=1;fontStyle=2;strokeColor=#000000;strokeWidth=1;" vertex="1" parent="1">
          <mxGeometry x="772" y="295" width="64" height="85" as="geometry" />
        </mxCell>
        <mxCell id="bFsspwIS_Gko53YMK19D-32" value="&lt;b style=&quot;font-size: 14px;&quot;&gt;&lt;font style=&quot;font-style: normal; font-size: 14px;&quot;&gt;General&lt;/font&gt;&lt;/b&gt;&lt;div style=&quot;font-size: 14px;&quot;&gt;&lt;span style=&quot;font-style: normal; font-size: 14px;&quot;&gt;&lt;b style=&quot;font-size: 14px;&quot;&gt;&lt;font style=&quot;font-size: 14px;&quot;&gt;Data&lt;/font&gt;&lt;/b&gt;&lt;/span&gt;&lt;/div&gt;" style="shape=note;size=0;whiteSpace=wrap;html=1;align=center;verticalAlign=top;fontSize=14;fontFamily=Georgia;shadow=1;fontStyle=2;strokeColor=#000000;strokeWidth=1;" vertex="1" parent="1">
          <mxGeometry x="912" y="295" width="64" height="85" as="geometry" />
        </mxCell>
        <mxCell id="bFsspwIS_Gko53YMK19D-33" value="&lt;b style=&quot;font-size: 14px;&quot;&gt;&lt;font style=&quot;font-style: normal; font-size: 14px;&quot;&gt;General&lt;/font&gt;&lt;/b&gt;&lt;div style=&quot;font-size: 14px;&quot;&gt;&lt;span style=&quot;font-style: normal; font-size: 14px;&quot;&gt;&lt;b style=&quot;font-size: 14px;&quot;&gt;&lt;font style=&quot;font-size: 14px;&quot;&gt;Data&lt;/font&gt;&lt;/b&gt;&lt;/span&gt;&lt;/div&gt;" style="shape=note;size=0;whiteSpace=wrap;html=1;align=center;verticalAlign=top;fontSize=14;fontFamily=Georgia;shadow=1;fontStyle=2;strokeColor=#000000;strokeWidth=1;" vertex="1" parent="1">
          <mxGeometry x="772" y="390" width="64" height="85" as="geometry" />
        </mxCell>
        <mxCell id="bFsspwIS_Gko53YMK19D-34" value="&lt;b style=&quot;font-size: 14px;&quot;&gt;&lt;font style=&quot;font-style: normal; font-size: 14px;&quot;&gt;General&lt;/font&gt;&lt;/b&gt;&lt;div style=&quot;font-size: 14px;&quot;&gt;&lt;span style=&quot;font-style: normal; font-size: 14px;&quot;&gt;&lt;b style=&quot;font-size: 14px;&quot;&gt;&lt;font style=&quot;font-size: 14px;&quot;&gt;Data&lt;/font&gt;&lt;/b&gt;&lt;/span&gt;&lt;/div&gt;" style="shape=note;size=0;whiteSpace=wrap;html=1;align=center;verticalAlign=top;fontSize=14;fontFamily=Georgia;shadow=1;fontStyle=2;strokeColor=#000000;strokeWidth=1;" vertex="1" parent="1">
          <mxGeometry x="842" y="390" width="64" height="85" as="geometry" />
        </mxCell>
        <mxCell id="bFsspwIS_Gko53YMK19D-35" value="&lt;b style=&quot;font-size: 14px;&quot;&gt;&lt;font style=&quot;font-style: normal; font-size: 14px;&quot;&gt;General&lt;/font&gt;&lt;/b&gt;&lt;div style=&quot;font-size: 14px;&quot;&gt;&lt;span style=&quot;font-style: normal; font-size: 14px;&quot;&gt;&lt;b style=&quot;font-size: 14px;&quot;&gt;&lt;font style=&quot;font-size: 14px;&quot;&gt;Data&lt;/font&gt;&lt;/b&gt;&lt;/span&gt;&lt;/div&gt;" style="shape=note;size=0;whiteSpace=wrap;html=1;align=center;verticalAlign=top;fontSize=14;fontFamily=Georgia;shadow=1;fontStyle=2;strokeColor=#000000;strokeWidth=1;" vertex="1" parent="1">
          <mxGeometry x="912" y="390" width="64" height="85" as="geometry" />
        </mxCell>
        <mxCell id="bFsspwIS_Gko53YMK19D-36" value="&lt;font style=&quot;font-size: 14px;&quot;&gt;xxxxxx&lt;/font&gt;" style="rounded=0;whiteSpace=wrap;html=1;fontStyle=1;fontFamily=Helvetica;" vertex="1" parent="1">
          <mxGeometry x="772" y="241" width="64" height="22" as="geometry" />
        </mxCell>
        <mxCell id="bFsspwIS_Gko53YMK19D-37" value="&lt;b style=&quot;font-size: 14px;&quot;&gt;&lt;font style=&quot;font-size: 14px;&quot;&gt;xxxxx&lt;/font&gt;&lt;/b&gt;" style="rounded=0;whiteSpace=wrap;html=1;fontSize=14;" vertex="1" parent="1">
          <mxGeometry x="772" y="263" width="64" height="22" as="geometry" />
        </mxCell>
        <mxCell id="bFsspwIS_Gko53YMK19D-38" value="&lt;font style=&quot;font-size: 14px;&quot;&gt;xxxxxx&lt;/font&gt;" style="rounded=0;whiteSpace=wrap;html=1;fontStyle=1" vertex="1" parent="1">
          <mxGeometry x="842" y="241" width="64" height="22" as="geometry" />
        </mxCell>
        <mxCell id="bFsspwIS_Gko53YMK19D-39" value="&lt;font style=&quot;font-size: 14px;&quot;&gt;xxxxxx&lt;/font&gt;" style="rounded=0;whiteSpace=wrap;html=1;fontStyle=1" vertex="1" parent="1">
          <mxGeometry x="842" y="263" width="64" height="22" as="geometry" />
        </mxCell>
        <mxCell id="bFsspwIS_Gko53YMK19D-44" value="&lt;font style=&quot;font-size: 14px;&quot;&gt;.........&lt;/font&gt;" style="rounded=0;whiteSpace=wrap;html=1;fontStyle=1" vertex="1" parent="1">
          <mxGeometry x="842" y="358" width="64" height="22" as="geometry" />
        </mxCell>
        <mxCell id="bFsspwIS_Gko53YMK19D-45" value="&lt;font style=&quot;font-size: 14px;&quot;&gt;.........&lt;/font&gt;" style="rounded=0;whiteSpace=wrap;html=1;fontStyle=1" vertex="1" parent="1">
          <mxGeometry x="842" y="336" width="64" height="22" as="geometry" />
        </mxCell>
        <mxCell id="bFsspwIS_Gko53YMK19D-54" value="" style="shape=link;html=1;rounded=0;entryX=1;entryY=1;entryDx=0;entryDy=0;strokeColor=default;labelBackgroundColor=#000000;" edge="1" parent="1">
          <mxGeometry width="100" relative="1" as="geometry">
            <mxPoint x="420" y="245" as="sourcePoint" />
            <mxPoint x="620" y="246" as="targetPoint" />
          </mxGeometry>
        </mxCell>
        <mxCell id="bFsspwIS_Gko53YMK19D-55" value="" style="shape=link;html=1;rounded=0;entryX=1;entryY=1;entryDx=0;entryDy=0;strokeColor=default;labelBackgroundColor=#000000;" edge="1" parent="1">
          <mxGeometry width="100" relative="1" as="geometry">
            <mxPoint x="420" y="360" as="sourcePoint" />
            <mxPoint x="620" y="361" as="targetPoint" />
          </mxGeometry>
        </mxCell>
        <mxCell id="bFsspwIS_Gko53YMK19D-56" value="&lt;b style=&quot;font-size: 14px;&quot;&gt;&lt;font style=&quot;font-size: 14px;&quot;&gt;xxxxx&lt;/font&gt;&lt;/b&gt;" style="rounded=0;whiteSpace=wrap;html=1;fontSize=14;" vertex="1" parent="1">
          <mxGeometry x="912" y="241" width="64" height="22" as="geometry" />
        </mxCell>
        <mxCell id="bFsspwIS_Gko53YMK19D-57" value="&lt;b style=&quot;font-size: 14px;&quot;&gt;&lt;font style=&quot;font-size: 14px;&quot;&gt;xxxxx&lt;/font&gt;&lt;/b&gt;" style="rounded=0;whiteSpace=wrap;html=1;fontSize=14;" vertex="1" parent="1">
          <mxGeometry x="912" y="263" width="64" height="22" as="geometry" />
        </mxCell>
        <mxCell id="bFsspwIS_Gko53YMK19D-59" value="&lt;b style=&quot;font-size: 14px;&quot;&gt;&lt;font style=&quot;font-size: 14px;&quot;&gt;xxxxx&lt;/font&gt;&lt;/b&gt;" style="rounded=0;whiteSpace=wrap;html=1;fontSize=14;" vertex="1" parent="1">
          <mxGeometry x="772" y="336" width="64" height="22" as="geometry" />
        </mxCell>
        <mxCell id="bFsspwIS_Gko53YMK19D-60" value="&lt;b style=&quot;font-size: 14px;&quot;&gt;&lt;font style=&quot;font-size: 14px;&quot;&gt;xxxxx&lt;/font&gt;&lt;/b&gt;" style="rounded=0;whiteSpace=wrap;html=1;fontSize=14;" vertex="1" parent="1">
          <mxGeometry x="842" y="431" width="64" height="22" as="geometry" />
        </mxCell>
        <mxCell id="bFsspwIS_Gko53YMK19D-61" value="&lt;font style=&quot;font-size: 14px;&quot;&gt;xxxxxx&lt;/font&gt;" style="rounded=0;whiteSpace=wrap;html=1;fontStyle=1;fontFamily=Helvetica;" vertex="1" parent="1">
          <mxGeometry x="772" y="358" width="64" height="22" as="geometry" />
        </mxCell>
        <mxCell id="bFsspwIS_Gko53YMK19D-63" value="&lt;font style=&quot;font-size: 14px;&quot;&gt;xxxxxx&lt;/font&gt;" style="rounded=0;whiteSpace=wrap;html=1;fontStyle=1;fontFamily=Helvetica;" vertex="1" parent="1">
          <mxGeometry x="772" y="431" width="64" height="22" as="geometry" />
        </mxCell>
        <mxCell id="bFsspwIS_Gko53YMK19D-64" value="&lt;font style=&quot;font-size: 14px;&quot;&gt;xxxxxx&lt;/font&gt;" style="rounded=0;whiteSpace=wrap;html=1;fontStyle=1;fontFamily=Helvetica;" vertex="1" parent="1">
          <mxGeometry x="772" y="453" width="64" height="22" as="geometry" />
        </mxCell>
        <mxCell id="bFsspwIS_Gko53YMK19D-65" value="&lt;font style=&quot;font-size: 14px;&quot;&gt;xxxxxx&lt;/font&gt;" style="rounded=0;whiteSpace=wrap;html=1;fontStyle=1;fontFamily=Helvetica;" vertex="1" parent="1">
          <mxGeometry x="842" y="453" width="64" height="22" as="geometry" />
        </mxCell>
        <mxCell id="bFsspwIS_Gko53YMK19D-67" value="&lt;b style=&quot;font-size: 14px;&quot;&gt;&lt;font style=&quot;font-size: 14px;&quot;&gt;xxxxx&lt;/font&gt;&lt;/b&gt;" style="rounded=0;whiteSpace=wrap;html=1;fontSize=14;" vertex="1" parent="1">
          <mxGeometry x="912" y="453" width="64" height="22" as="geometry" />
        </mxCell>
        <mxCell id="bFsspwIS_Gko53YMK19D-68" value="&lt;b style=&quot;font-size: 14px;&quot;&gt;&lt;font style=&quot;font-size: 14px;&quot;&gt;xxxxx&lt;/font&gt;&lt;/b&gt;" style="rounded=0;whiteSpace=wrap;html=1;fontSize=14;" vertex="1" parent="1">
          <mxGeometry x="912" y="431" width="64" height="22" as="geometry" />
        </mxCell>
        <mxCell id="bFsspwIS_Gko53YMK19D-69" value="&lt;b style=&quot;font-size: 14px;&quot;&gt;&lt;font style=&quot;font-size: 14px;&quot;&gt;xxxxx&lt;/font&gt;&lt;/b&gt;" style="rounded=0;whiteSpace=wrap;html=1;fontSize=14;" vertex="1" parent="1">
          <mxGeometry x="912" y="358" width="64" height="22" as="geometry" />
        </mxCell>
        <mxCell id="bFsspwIS_Gko53YMK19D-71" value="&lt;font style=&quot;font-size: 14px;&quot;&gt;xxxxxx&lt;/font&gt;" style="rounded=0;whiteSpace=wrap;html=1;fontStyle=1;fontFamily=Helvetica;" vertex="1" parent="1">
          <mxGeometry x="912" y="336" width="64" height="22" as="geometry" />
        </mxCell>
      </root>
    </mxGraphModel>
  </diagram>
</mxfile>
